<?xml version="1.0" encoding="utf-8"?>
<svg version="1.1" xmlns:xlink="http://www.w3.org/1999/xlink" width="14px" height="14px" xmlns="http://www.w3.org/2000/svg">
  <g transform="matrix(1 0 0 1 -1466 -96 )">
    <path d="M 13.67003367003367 10.464646464646464  C 13.890011223344557 10.684624017957349  14 10.951739618406283  14 11.265993265993266  C 14 11.580246913580249  13.890011223344557 11.847362514029179  13.67003367003367 12.067340067340067  L 12.067340067340067 13.67003367003367  C 11.847362514029182 13.890011223344557  11.580246913580247 14  11.265993265993266 14  C 10.951739618406286 14  10.684624017957352 13.890011223344557  10.464646464646465 13.67003367003367  L 7 10.205387205387206  L 3.5353535353535355 13.67003367003367  C 3.3153759820426494 13.890011223344557  3.048260381593715 14  2.734006734006734 14  C 2.419753086419753 14  2.1526374859708195 13.890011223344557  1.9326599326599327 13.67003367003367  L 0.32996632996632996 12.067340067340067  C 0.10998877665544343 11.847362514029179  0 11.580246913580249  0 11.265993265993266  C 0 10.951739618406283  0.10998877665544343 10.684624017957349  0.32996632996632996 10.464646464646464  L 3.7946127946127945 7  L 0.32996632996632996 3.5353535353535346  C 0.10998877665544343 3.3153759820426476  0 3.048260381593715  0 2.734006734006734  C 0 2.419753086419753  0.10998877665544343 2.1526374859708173  0.32996632996632996 1.9326599326599332  L 1.9326599326599327 0.32996632996633  C 2.1526374859708195 0.10998877665544282  2.419753086419753 0  2.734006734006734 0  C 3.048260381593715 0  3.3153759820426494 0.10998877665544282  3.5353535353535355 0.32996632996633  L 7 3.794612794612795  L 10.464646464646465 0.32996632996633  C 10.684624017957352 0.10998877665544282  10.951739618406286 0  11.265993265993266 0  C 11.580246913580247 0  11.847362514029182 0.10998877665544282  12.067340067340067 0.32996632996633  L 13.67003367003367 1.9326599326599332  C 13.890011223344557 2.1526374859708173  14 2.419753086419753  14 2.734006734006734  C 14 3.048260381593715  13.890011223344557 3.3153759820426476  13.67003367003367 3.5353535353535346  L 10.205387205387204 7  L 13.67003367003367 10.464646464646464  Z " fill-rule="nonzero" fill="#797979" stroke="none" transform="matrix(1 0 0 1 1466 96 )" />
  </g>
</svg>