<?xml version="1.0" encoding="utf-8"?>
<svg version="1.1" xmlns:xlink="http://www.w3.org/1999/xlink" width="26px" height="26px" xmlns="http://www.w3.org/2000/svg">
  <g transform="matrix(1 0 0 1 -134 -76 )">
    <path d="M 5.501302083333333 10.518973214285715  C 7.825954861111112 10.934895833333336  10.325520833333334 11.142857142857144  13 11.142857142857144  C 15.674479166666668 11.142857142857144  18.17404513888889 10.934895833333336  20.498697916666668 10.518973214285715  C 22.823350694444446 10.103050595238093  24.657118055555557 9.488839285714285  26 8.676339285714285  L 26 11.142857142857144  C 26 11.810267857142856  25.418836805555554 12.429315476190476  24.256510416666668 13  C 23.09418402777778 13.570684523809522  21.514322916666668 14.022879464285712  19.516927083333332 14.356584821428571  C 17.51953125 14.690290178571429  15.347222222222223 14.857142857142856  13 14.857142857142856  C 10.652777777777779 14.857142857142856  8.48046875 14.690290178571429  6.483072916666667 14.356584821428571  C 4.485677083333333 14.022879464285712  2.9058159722222223 13.570684523809522  1.7434895833333335 13  C 0.5811631944444444 12.429315476190476  0 11.810267857142856  0 11.142857142857144  L 0 8.676339285714285  C 1.3428819444444446 9.488839285714285  3.176649305555556 10.103050595238093  5.501302083333333 10.518973214285715  Z M 5.501302083333333 21.661830357142858  C 7.825954861111112 22.077752976190478  10.325520833333334 22.28571428571429  13 22.28571428571429  C 15.674479166666668 22.28571428571429  18.17404513888889 22.077752976190478  20.498697916666668 21.661830357142858  C 22.823350694444446 21.245907738095237  24.657118055555557 20.631696428571427  26 19.819196428571427  L 26 22.28571428571429  C 26 22.953125  25.418836805555554 23.57217261904762  24.256510416666668 24.142857142857142  C 23.09418402777778 24.713541666666664  21.514322916666668 25.165736607142858  19.516927083333332 25.499441964285715  C 17.51953125 25.833147321428573  15.347222222222223 26  13 26  C 10.652777777777779 26  8.48046875 25.833147321428573  6.483072916666667 25.499441964285715  C 4.485677083333333 25.165736607142858  2.9058159722222223 24.713541666666664  1.7434895833333335 24.142857142857142  C 0.5811631944444444 23.57217261904762  0 22.953125  0 22.28571428571429  L 0 19.819196428571427  C 1.3428819444444446 20.631696428571427  3.176649305555556 21.245907738095237  5.501302083333333 21.661830357142858  Z M 5.501302083333333 16.09040178571429  C 7.825954861111112 16.506324404761905  10.325520833333334 16.71428571428571  13 16.71428571428571  C 15.674479166666668 16.71428571428571  18.17404513888889 16.506324404761905  20.498697916666668 16.09040178571429  C 22.823350694444446 15.674479166666664  24.657118055555557 15.060267857142856  26 14.247767857142856  L 26 16.71428571428571  C 26 17.381696428571427  25.418836805555554 18.000744047619044  24.256510416666668 18.571428571428573  C 23.09418402777778 19.142113095238095  21.514322916666668 19.59430803571429  19.516927083333332 19.928013392857142  C 17.51953125 20.26171875  15.347222222222223 20.428571428571427  13 20.428571428571427  C 10.652777777777779 20.428571428571427  8.48046875 20.26171875  6.483072916666667 19.928013392857142  C 4.485677083333333 19.59430803571429  2.9058159722222223 19.142113095238095  1.7434895833333335 18.571428571428573  C 0.5811631944444444 18.000744047619044  0 17.381696428571427  0 16.71428571428571  L 0 14.247767857142856  C 1.3428819444444446 15.060267857142856  3.176649305555556 15.674479166666664  5.501302083333333 16.09040178571429  Z M 6.483072916666667 0.5005580357142845  C 8.48046875 0.16685267857142816  10.652777777777779 0  13 0  C 15.347222222222223 0  17.51953125 0.16685267857142816  19.516927083333332 0.5005580357142845  C 21.514322916666668 0.8342633928571437  23.09418402777778 1.2864583333333324  24.256510416666668 1.8571428571428563  C 25.418836805555554 2.4278273809523805  26 3.046875  26 3.7142857142857153  L 26 5.571428571428572  C 26 6.238839285714285  25.418836805555554 6.8578869047619015  24.256510416666668 7.428571428571428  C 23.09418402777778 7.9992559523809526  21.514322916666668 8.451450892857144  19.516927083333332 8.78515625  C 17.51953125 9.118861607142856  15.347222222222223 9.285714285714285  13 9.285714285714285  C 10.652777777777779 9.285714285714285  8.48046875 9.118861607142856  6.483072916666667 8.78515625  C 4.485677083333333 8.451450892857144  2.9058159722222223 7.9992559523809526  1.7434895833333335 7.428571428571428  C 0.5811631944444444 6.8578869047619015  0 6.238839285714285  0 5.571428571428572  L 0 3.7142857142857153  C 0 3.046875  0.5811631944444444 2.4278273809523805  1.7434895833333335 1.8571428571428563  C 2.9058159722222223 1.2864583333333324  4.485677083333333 0.8342633928571437  6.483072916666667 0.5005580357142845  Z " fill-rule="nonzero" fill="#ffffff" stroke="none" transform="matrix(1 0 0 1 134 76 )" />
  </g>
</svg>