<?xml version="1.0" encoding="utf-8"?>
<svg version="1.1" xmlns:xlink="http://www.w3.org/1999/xlink" width="10px" height="11px" xmlns="http://www.w3.org/2000/svg">
  <g transform="matrix(1 0 0 1 -815 -323 )">
    <path d="M 7.554086538461533 10.222222222222229  L 2.455303485576934 10.222222222222229  L 7.554086538461533 10.222222222222229  Z M 9.206730769230802 5.111111111111105  C 9.469651442307665 5.111111111111105  9.654321915064088 5.240885416666667  9.7607421875 5.5004340277777715  C 9.867162459935912 5.773292824074076  9.823342347756423 6.006221064814819  9.629281850961533 6.19921875  L 5.422551081730802 10.671440972222229  C 5.309870793269198 10.797887731481486  5.169020432692335 10.861111111111105  5 10.861111111111105  C 4.830979567307665 10.861111111111105  4.690129206730802 10.797887731481486  4.577448918269198 10.671440972222229  L 0.370718149038467 6.19921875  C 0.176657652243577 6.006221064814819  0.132837540064088 5.773292824074076  0.2392578125 5.5004340277777715  C 0.345678084935912 5.240885416666667  0.530348557692335 5.111111111111105  0.793269230769198 5.111111111111105  L 3.197115384615401 5.111111111111105  L 3.197115384615401 0.6388888888888952  C 3.197115384615401 0.46585648148148573  3.256585536858978 0.31611689814815236  3.375525841346132 0.1896701388888952  C 3.494466145833357 0.06322337962963805  3.635316506410291 0  3.798076923076934 0  L 6.201923076923066 0  C 6.36468349358978 0  6.505533854166643 0.06322337962963805  6.624474158653868 0.1896701388888952  C 6.743414463141022 0.31611689814815236  6.802884615384599 0.46585648148148573  6.802884615384599 0.6388888888888952  L 6.802884615384599 5.111111111111105  L 9.206730769230802 5.111111111111105  Z " fill-rule="nonzero" fill="#ffffff" stroke="none" transform="matrix(1 0 0 1 815 323 )" />
  </g>
</svg>