<svg t="1693994069574" class="icon" viewBox="0 0 1024 1024" version="1.1" xmlns="http://www.w3.org/2000/svg" p-id="51681" width="200" height="200"><path d="M861.5 545.3V251.7c37.6-5.5 65.2-38.2 64.4-76.2 0-42.7-34.7-77.4-77.4-77.4-38-0.8-70.6 26.8-76.2 64.4H478.9c-5.5-37.6-38.2-65.2-76.2-64.4-42.7 0-77.4 34.7-77.4 77.4 0 16.1 5 31.7 14.4 44.8L221.1 338.8c-34.8-24.8-83-16.7-107.8 18.1-9.4 13.1-14.4 28.8-14.4 44.9-0.8 38 26.7 70.6 64.3 76.2v293.6c-37.6 5.6-65.1 38.2-64.3 76.2 0.1 42.7 34.7 77.3 77.4 77.3 38 0.8 70.7-26.9 76.3-64.5h293.5c5.5 37.6 38.1 65.2 76.2 64.5 42.7 0.1 77.3-34.4 77.5-77.1 0-15.3-4.5-30.3-13-43.1L806 685.8c12.6 8.5 27.5 13 42.8 13 42.7-0.1 77.2-34.7 77.2-77.4 0.7-38-26.9-70.6-64.5-76.1zM357.8 238.5c9.3 6.9 20.2 11.5 31.7 13.2v137H252.6c-1.7-11.5-6.3-22.4-13.3-31.7l118.5-118.5zM223 786.3c-9.9-7.6-21.5-12.6-33.9-14.6V478c32.5-5.6 57.9-31 63.5-63.5h136.9v130.7c-37.6 5.6-65.1 38.2-64.3 76.2 0.1 16.9 5.7 33.3 15.9 46.6L223 786.3z m386.4-14.7c-32.3 5.5-57.7 30.8-63.2 63.1H252.6c-1.4-10.8-5.5-21-11.9-29.8l119.3-119c12.7 8.5 27.5 13 42.8 12.9 38 0.8 70.6-26.8 76.2-64.4h130.5l-0.1 137.2z m0-163.1H478.9c-5.6-32.4-31.1-57.7-63.5-63.2V414.6h130.8c5.5 32.4 30.8 57.9 63.2 63.5v130.4z m-63.3-219.8H415.4v-137c32.5-5.6 57.9-31 63.5-63.4h293.5c1.8 11.5 6.3 22.5 13.3 31.9L667.1 338.8c-13.1-9.4-28.7-14.4-44.8-14.5-38-0.8-70.6 26.8-76.2 64.4zM669 786.3c-9.8-7.6-21.4-12.6-33.7-14.6V634.3h137.2c2.1 12.3 7.1 23.9 14.7 33.8L669 786.3z m166.6-241c-32.4 5.5-57.7 30.9-63.2 63.2H635.3V478.1c37.6-5.5 65.2-38.2 64.4-76.2 0-16-5-31.7-14.4-44.7l118.6-118.6c9.3 7 20.2 11.5 31.7 13.2v293.5z" p-id="51682" fill="#dddddd"></path></svg>