<?xml version="1.0" encoding="utf-8"?>
<svg version="1.1" xmlns:xlink="http://www.w3.org/1999/xlink" width="30px" height="25px" xmlns="http://www.w3.org/2000/svg">
  <g transform="matrix(1 0 0 1 -134 -76 )">
    <path d="M 8.823529411764707 17.996651785714285  L 8.823529411764707 22.767857142857142  L 14.117647058823529 20.089285714285715  L 14.117647058823529 15.708705357142858  L 8.823529411764707 17.996651785714285  Z M 2.3713235294117645 14.02064732142857  L 7.9411764705882355 16.434151785714285  L 13.511029411764707 14.02064732142857  L 7.9411764705882355 11.607142857142858  L 2.3713235294117645 14.02064732142857  Z M 22.941176470588232 17.996651785714285  L 22.941176470588232 22.767857142857142  L 28.235294117647058 20.089285714285715  L 28.235294117647058 15.708705357142858  L 22.941176470588232 17.996651785714285  Z M 16.488970588235297 14.02064732142857  L 22.058823529411768 16.434151785714285  L 27.628676470588232 14.02064732142857  L 22.058823529411768 11.607142857142858  L 16.488970588235297 14.02064732142857  Z M 15.882352941176471 8.621651785714285  L 15.882352941176471 12.346540178571427  L 21.176470588235297 10.044642857142858  L 21.176470588235297 6.333705357142858  L 15.882352941176471 8.621651785714285  Z M 8.920036764705884 4.422433035714285  L 15 7.059151785714285  L 21.079963235294116 4.422433035714285  L 15 1.785714285714285  L 8.920036764705884 4.422433035714285  Z M 29.71047794117647 13.309151785714285  C 29.903492647058826 13.606770833333332  30 13.932291666666666  30 14.285714285714285  L 30 20.089285714285715  C 30 20.424107142857142  29.912683823529413 20.735677083333332  29.738051470588232 21.023995535714285  C 29.563419117647058 21.312313988095237  29.324448529411768 21.530877976190478  29.021139705882355 21.6796875  L 22.844669117647058 24.8046875  C 22.614889705882355 24.934895833333332  22.352941176470587 25  22.058823529411768 25  C 21.764705882352942 25  21.502757352941178 24.934895833333332  21.27297794117647 24.8046875  L 15.096507352941176 21.6796875  C 15.059742647058826 21.66108630952381  15.027573529411766 21.642485119047617  15 21.62388392857143  C 14.981617647058826 21.642485119047617  14.949448529411768 21.66108630952381  14.903492647058822 21.6796875  L 8.727022058823529 24.8046875  C 8.497242647058824 24.934895833333332  8.23529411764706 25  7.9411764705882355 25  C 7.647058823529413 25  7.3851102941176485 24.934895833333332  7.155330882352942 24.8046875  L 0.9788602941176471 21.6796875  C 0.6755514705882353 21.530877976190478  0.4365808823529412 21.312313988095237  0.2619485294117647 21.023995535714285  C 0.08731617647058823 20.735677083333332  0 20.424107142857142  0 20.089285714285715  L 0 14.285714285714285  C 0 13.932291666666666  0.09880514705882351 13.606770833333332  0.29641544117647056 13.309151785714285  C 0.49402573529411764 13.011532738095239  0.7536764705882353 12.788318452380953  1.0753676470588234 12.63950892857143  L 7.0588235294117645 10.044642857142858  L 7.0588235294117645 4.464285714285715  C 7.0588235294117645 4.110863095238093  7.157628676470589 3.785342261904762  7.3552389705882355 3.4877232142857153  C 7.552849264705882 3.1901041666666656  7.812500000000001 2.966889880952378  8.134191176470587 2.8180803571428577  L 14.310661764705884 0.13950892857142738  C 14.522058823529413 0.046502976190479495  14.751838235294116 0  15 0  C 15.248161764705884 0  15.47794117647059 0.046502976190479495  15.689338235294116 0.13950892857142738  L 21.865808823529413 2.8180803571428577  C 22.1875 2.966889880952378  22.44715073529412 3.1901041666666656  22.644761029411768 3.4877232142857153  C 22.842371323529413 3.785342261904762  22.941176470588232 4.110863095238093  22.941176470588232 4.464285714285715  L 22.941176470588232 10.044642857142858  L 28.924632352941174 12.63950892857143  C 29.255514705882355 12.788318452380953  29.517463235294116 13.011532738095239  29.71047794117647 13.309151785714285  Z " fill-rule="nonzero" fill="#ffffff" stroke="none" transform="matrix(1 0 0 1 134 76 )" />
  </g>
</svg>