<?xml version="1.0" encoding="utf-8"?>
<svg version="1.1" xmlns:xlink="http://www.w3.org/1999/xlink" width="12px" height="12px" xmlns="http://www.w3.org/2000/svg">
  <g transform="matrix(1 0 0 1 -1460 -608 )">
    <path d="M 11.5234375 3.6718750000000004  C 11.841145833333332 4.411458333333334  12 5.1875  12 6  C 12 6.812499999999999  11.841145833333332 7.588541666666665  11.5234375 8.328125  C 11.205729166666668 9.067708333333334  10.778645833333334 9.705729166666666  10.2421875 10.2421875  C 9.705729166666668 10.778645833333334  9.067708333333334 11.205729166666666  8.328125 11.5234375  C 7.588541666666668 11.841145833333334  6.8125 12  6 12  C 5.104166666666667 12  4.252604166666667 11.811197916666666  3.4453125 11.43359375  C 2.6380208333333335 11.055989583333334  1.9505208333333335 10.5234375  1.3828125 9.8359375  C 1.3463541666666667 9.783854166666666  1.3294270833333335 9.725260416666666  1.33203125 9.66015625  C 1.3346354166666667 9.595052083333334  1.3567708333333335 9.541666666666666  1.3984375 9.5  L 2.46875 8.421875  C 2.5208333333333335 8.375  2.5859375 8.3515625  2.6640625 8.3515625  C 2.7473958333333335 8.361979166666664  2.807291666666667 8.393229166666666  2.84375 8.4453125  C 3.223958333333334 8.940104166666668  3.690104166666667 9.322916666666666  4.2421875 9.59375  C 4.794270833333334 9.864583333333334  5.380208333333334 10  6 10  C 6.541666666666668 10  7.05859375 9.89453125  7.55078125 9.68359375  C 8.04296875 9.47265625  8.46875 9.1875  8.828125 8.828125  C 9.1875 8.46875  9.47265625 8.04296875  9.68359375 7.550781249999999  C 9.89453125 7.058593749999999  10 6.541666666666666  10 6  C 10 5.458333333333332  9.89453125 4.94140625  9.68359375 4.44921875  C 9.47265625 3.9570312499999996  9.1875 3.5312500000000004  8.828125 3.1718749999999996  C 8.46875 2.8125  8.04296875 2.5273437499999996  7.55078125 2.3164062499999996  C 7.05859375 2.1054687499999996  6.541666666666668 1.9999999999999996  6 1.9999999999999996  C 5.489583333333334 1.9999999999999996  5 2.0924479166666665  4.53125 2.2773437500000004  C 4.0625 2.4622395833333317  3.645833333333334 2.7265624999999996  3.28125 3.0703125  L 4.3515625 4.1484375  C 4.513020833333334 4.3046875  4.549479166666667 4.484375  4.4609375 4.6875  C 4.372395833333334 4.895833333333334  4.21875 5  4 5  L 0.5 5  C 0.36458333333333337 5  0.24739583333333331 4.950520833333334  0.1484375 4.8515625  C 0.04947916666666667 4.752604166666666  0 4.635416666666666  0 4.5  L 0 1.0000000000000004  C 0 0.7812499999999996  0.10416666666666666 0.6276041666666665  0.3125 0.5390625  C 0.515625 0.45052083333333215  0.6953125 0.4869791666666665  0.8515625 0.6484375000000004  L 1.8671875 1.6562500000000004  C 2.424479166666667 1.1302083333333321  3.061197916666667 0.7226562499999996  3.77734375 0.43359375  C 4.493489583333334 0.14453125000000044  5.234375 0  6 0  C 6.8125 0  7.588541666666668 0.15885416666666652  8.328125 0.47656249999999956  C 9.067708333333334 0.7942708333333326  9.705729166666668 1.221354166666666  10.2421875 1.7578125  C 10.778645833333334 2.2942708333333326  11.205729166666668 2.932291666666666  11.5234375 3.6718750000000004  Z " fill-rule="nonzero" fill="#797979" stroke="none" transform="matrix(1 0 0 1 1460 608 )" />
  </g>
</svg>