<?xml version="1.0" encoding="utf-8"?>
<svg version="1.1" xmlns:xlink="http://www.w3.org/1999/xlink" width="11px" height="11px" xmlns="http://www.w3.org/2000/svg">
  <g transform="matrix(1 0 0 1 -116 -566 )">
    <path d="M 6.352213541666667 9.102213541666668  C 6.395182291666667 9.059244791666668  6.416666666666667 9.004340277777777  6.416666666666667 8.9375  L 6.416666666666667 7.5625  C 6.416666666666667 7.4956597222222205  6.395182291666667 7.440755208333334  6.352213541666667 7.397786458333334  C 6.309244791666667 7.354817708333334  6.254340277777779 7.333333333333334  6.1875 7.333333333333334  L 4.8125 7.333333333333334  C 4.745659722222223 7.333333333333334  4.690755208333334 7.354817708333334  4.647786458333334 7.397786458333334  C 4.604817708333334 7.440755208333334  4.583333333333334 7.4956597222222205  4.583333333333334 7.5625  L 4.583333333333334 8.9375  C 4.583333333333334 9.004340277777777  4.604817708333334 9.059244791666668  4.647786458333334 9.102213541666668  C 4.690755208333334 9.145182291666668  4.745659722222223 9.166666666666668  4.8125 9.166666666666668  L 6.1875 9.166666666666668  C 6.254340277777779 9.166666666666668  6.309244791666667 9.145182291666668  6.352213541666667 9.102213541666668  Z M 8.160481770833332 4.705078125  C 8.220160590277779 4.528428819444445  8.25 4.335069444444445  8.25 4.125  C 8.25 3.7048611111111103  8.117513020833332 3.315755208333333  7.8525390625 2.957682291666667  C 7.587565104166667 2.599609375  7.2569444444444455 2.3226996527777772  6.860677083333333 2.126953125  C 6.464409722222223 1.9312065972222214  6.05859375 1.833333333333333  5.643229166666667 1.833333333333333  C 4.483072916666666 1.833333333333333  3.5974392361111116 2.341796875  2.986328125 3.358723958333333  C 2.914713541666667 3.473307291666667  2.9338107638888893 3.573567708333333  3.0436197916666665 3.659505208333333  L 3.9889322916666665 4.375651041666667  C 4.022352430555556 4.404296875  4.067708333333334 4.418619791666667  4.125 4.418619791666667  C 4.201388888888889 4.418619791666667  4.261067708333334 4.389973958333333  4.304036458333334 4.332682291666667  C 4.557074652777778 4.008029513888888  4.762369791666666 3.788411458333333  4.919921875 3.673828125  C 5.082248263888889 3.559244791666667  5.287543402777778 3.501953125  5.535807291666667 3.501953125  C 5.764973958333333 3.501953125  5.969075520833333 3.5640190972222214  6.148111979166667 3.688151041666667  C 6.3271484375 3.8122829861111103  6.416666666666667 3.9531249999999987  6.416666666666667 4.110677083333333  C 6.416666666666667 4.292100694444445  6.368923611111112 4.437717013888888  6.2734375 4.547526041666667  C 6.17795138888889 4.657335069444445  6.015625 4.764756944444445  5.786458333333333 4.869791666666667  C 5.485677083333334 5.003472222222221  5.2099609375 5.2099609375  4.959309895833334 5.4892578125  C 4.708658854166666 5.7685546875  4.583333333333334 6.068142361111112  4.583333333333334 6.388020833333334  L 4.583333333333334 6.645833333333334  C 4.583333333333334 6.712673611111112  4.604817708333334 6.767578125  4.647786458333334 6.810546875  C 4.690755208333334 6.853515625  4.745659722222223 6.875  4.8125 6.875  L 6.1875 6.875  C 6.254340277777779 6.875  6.309244791666667 6.853515625  6.352213541666667 6.810546875  C 6.395182291666667 6.767578125  6.416666666666667 6.712673611111112  6.416666666666667 6.645833333333334  C 6.416666666666667 6.555121527777777  6.46799045138889 6.436957465277777  6.570638020833333 6.291341145833334  C 6.673285590277779 6.145724826388888  6.803385416666667 6.027560763888888  6.9609375 5.936848958333334  C 7.113715277777779 5.850911458333334  7.23068576388889 5.782877604166666  7.311848958333333 5.732747395833334  C 7.393012152777779 5.6826171875  7.502821180555555 5.599066840277777  7.641276041666667 5.482096354166667  C 7.779730902777779 5.365125868055555  7.88595920138889 5.250542534722221  7.9599609375 5.138346354166667  C 8.033962673611112 5.02615017361111  8.10080295138889 4.881727430555555  8.160481770833332 4.705078125  Z M 10.262369791666668 2.7392578125  C 10.754123263888888 3.5819227430555545  11 4.5021701388888875  11 5.5  C 11 6.497829861111112  10.754123263888888 7.418077256944443  10.262369791666668 8.2607421875  C 9.770616319444446 9.103407118055555  9.103407118055555 9.770616319444445  8.2607421875 10.262369791666668  C 7.4180772569444455 10.75412326388889  6.497829861111112 11  5.5 11  C 4.502170138888889 11  3.581922743055556 10.75412326388889  2.7392578125 10.262369791666668  C 1.8965928819444446 9.770616319444445  1.2293836805555558 9.103407118055555  0.7376302083333334 8.2607421875  C 0.24587673611111108 7.418077256944443  0 6.497829861111112  0 5.5  C 0 4.5021701388888875  0.24587673611111108 3.5819227430555545  0.7376302083333334 2.7392578125  C 1.2293836805555558 1.8965928819444442  1.8965928819444446 1.2293836805555545  2.7392578125 0.7376302083333329  C 3.581922743055556 0.24587673611111016  4.502170138888889 0  5.5 0  C 6.497829861111112 0  7.4180772569444455 0.24587673611111016  8.2607421875 0.7376302083333329  C 9.103407118055555 1.2293836805555545  9.770616319444446 1.8965928819444442  10.262369791666668 2.7392578125  Z " fill-rule="nonzero" fill="#ffffff" stroke="none" transform="matrix(1 0 0 1 116 566 )" />
  </g>
</svg>