<?xml version="1.0" encoding="UTF-8"?>
<svg width="24px" height="24px" viewBox="0 0 24 24" version="1.1" xmlns="http://www.w3.org/2000/svg" xmlns:xlink="http://www.w3.org/1999/xlink">
    <title>icon_cd</title>
    <g id="移动端" stroke="none" stroke-width="1" fill="none" fill-rule="evenodd">
        <g id="大规模算力_02" transform="translate(-327.000000, -20.000000)">
            <g id="icon_cd" transform="translate(327.000000, 20.000000)">
                <rect id="矩形" fill-opacity="0" fill="#FFFFFF" x="0" y="0" width="24" height="24"></rect>
                <path d="M5.77777778,7.55555556 C6.7596,7.55555556 7.55555556,6.7596 7.55555556,5.77777778 C7.55555556,4.79593778 6.7596,4 5.77777778,4 C4.79593778,4 4,4.79593778 4,5.77777778 C4,6.7596 4.79593778,7.55555556 5.77777778,7.55555556 Z M12,7.55555556 C12.9818222,7.55555556 13.7777778,6.7596 13.7777778,5.77777778 C13.7777778,4.79593778 12.9818222,4 12,4 C11.0181778,4 10.2222222,4.79593778 10.2222222,5.77777778 C10.2222222,6.7596 11.0181778,7.55555556 12,7.55555556 Z M18.2222222,7.55555556 C19.2040444,7.55555556 20,6.7596 20,5.77777778 C20,4.79593778 19.2040444,4 18.2222222,4 C17.2404,4 16.4444444,4.79593778 16.4444444,5.77777778 C16.4444444,6.7596 17.2404,7.55555556 18.2222222,7.55555556 Z M5.77777778,13.7777778 C6.7596,13.7777778 7.55555556,12.9818222 7.55555556,12 C7.55555556,11.0181778 6.7596,10.2222222 5.77777778,10.2222222 C4.79593778,10.2222222 4,11.0181778 4,12 C4,12.9818222 4.79593778,13.7777778 5.77777778,13.7777778 Z M12,13.7777778 C12.9818222,13.7777778 13.7777778,12.9818222 13.7777778,12 C13.7777778,11.0181778 12.9818222,10.2222222 12,10.2222222 C11.0181778,10.2222222 10.2222222,11.0181778 10.2222222,12 C10.2222222,12.9818222 11.0181778,13.7777778 12,13.7777778 Z M18.2222222,13.7777778 C19.2040444,13.7777778 20,12.9818222 20,12 C20,11.0181778 19.2040444,10.2222222 18.2222222,10.2222222 C17.2404,10.2222222 16.4444444,11.0181778 16.4444444,12 C16.4444444,12.9818222 17.2404,13.7777778 18.2222222,13.7777778 Z M5.77777778,20 C6.7596,20 7.55555556,19.2040444 7.55555556,18.2222222 C7.55555556,17.2404 6.7596,16.4444444 5.77777778,16.4444444 C4.79593778,16.4444444 4,17.2404 4,18.2222222 C4,19.2040444 4.79593778,20 5.77777778,20 Z M12,20 C12.9818222,20 13.7777778,19.2040444 13.7777778,18.2222222 C13.7777778,17.2404 12.9818222,16.4444444 12,16.4444444 C11.0181778,16.4444444 10.2222222,17.2404 10.2222222,18.2222222 C10.2222222,19.2040444 11.0181778,20 12,20 Z M18.2222222,20 C19.2040444,20 20,19.2040444 20,18.2222222 C20,17.2404 19.2040444,16.4444444 18.2222222,16.4444444 C17.2404,16.4444444 16.4444444,17.2404 16.4444444,18.2222222 C16.4444444,19.2040444 17.2404,20 18.2222222,20 Z" id="形状" fill="#B0B0B0" fill-rule="nonzero"></path>
            </g>
        </g>
    </g>
</svg>