<?xml version="1.0" encoding="UTF-8"?>
<svg width="24px" height="24px" viewBox="0 0 24 24" version="1.1" xmlns="http://www.w3.org/2000/svg" xmlns:xlink="http://www.w3.org/1999/xlink">
    <title>icon_gb</title>
    <g id="移动端" stroke="none" stroke-width="1" fill="none" fill-rule="evenodd">
        <g id="导航栏" transform="translate(-327.000000, -20.000000)">
            <g id="icon_gb" transform="translate(327.000000, 20.000000)">
                <rect id="矩形" fill-opacity="0" fill="#FFFFFF" x="0" y="0" width="24" height="24"></rect>
                <path d="M6.29289322,6.29289322 C6.68341751,5.90236893 7.31658249,5.90236893 7.70710678,6.29289322 L12,10.585 L16.2928932,6.29289322 C16.6533772,5.93240926 17.2206082,5.90467972 17.6128994,6.20970461 L17.7071068,6.29289322 C18.0976311,6.68341751 18.0976311,7.31658249 17.7071068,7.70710678 L13.414,12 L17.7071068,16.2928932 C18.0675907,16.6533772 18.0953203,17.2206082 17.7902954,17.6128994 L17.7071068,17.7071068 C17.3165825,18.0976311 16.6834175,18.0976311 16.2928932,17.7071068 L12,13.414 L7.70710678,17.7071068 C7.34662282,18.0675907 6.77939176,18.0953203 6.38710056,17.7902954 L6.29289322,17.7071068 C5.90236893,17.3165825 5.90236893,16.6834175 6.29289322,16.2928932 L10.585,12 L6.29289322,7.70710678 C5.93240926,7.34662282 5.90467972,6.77939176 6.20970461,6.38710056 L6.29289322,6.29289322 Z" id="路径" fill="#B0B0B0" fill-rule="nonzero"></path>
            </g>
        </g>
    </g>
</svg>