<svg width="36.428467" height="30.000000" viewBox="0 0 36.4285 30" fill="none" xmlns="http://www.w3.org/2000/svg" xmlns:xlink="http://www.w3.org/1999/xlink">
	<desc>
			Created with Pixso.
	</desc>
	<defs/>
	<path id="形状" d="M33.2142 0C33.6058 0.000488281 33.9941 0.0715332 34.3605 0.210205C34.8872 0.410645 35.3516 0.74707 35.7063 1.18506C35.8984 1.42065 36.0565 1.68213 36.1755 1.96191C36.3181 2.2998 36.4015 2.65967 36.422 3.02588L36.4285 3.21436L36.4285 4.28564L20.3003 18.0427C19.1571 19.0181 17.4907 19.071 16.2878 18.1704L16.1282 18.0417L0 4.28564L0 3.21436L0 3.21436C-0.00256348 2.00073 0.680542 0.890137 1.76465 0.344971C2.21411 0.11792 2.71069 -0.000244141 3.21423 0L33.2142 0ZM3.69641 3.21436L32.7321 3.21436L18.2142 15.5969L3.69641 3.21436ZM36.4285 26.7856L36.4285 8.12891L33.2142 10.8535L33.2142 26.7856L3.21423 26.7856L3.21423 10.8535L0 8.12891L0 26.7856C0 28.5608 1.43909 30 3.21423 30L33.2142 30C34.9894 30 36.4285 28.5608 36.4285 26.7856Z" clip-rule="evenodd" fill-rule="evenodd" fill="#9DE3A0" fill-opacity="1.000000"/>
</svg>
