<svg width="33.479736" height="30.000000" viewBox="0 0 33.4797 30" fill="none" xmlns="http://www.w3.org/2000/svg" xmlns:xlink="http://www.w3.org/1999/xlink">
	<desc>
			Created with Pixso.
	</desc>
	<defs/>
	<path id="形状" d="M32.3881 1.01929C31.782 0.391602 30.9543 0.0256348 30.0822 0C29.6342 0.000976562 29.1909 0.0917969 28.7788 0.267334L1.04065 12.2817C0.369507 12.5549 -0.0489502 13.23 0.00463867 13.9526L0.00463867 15.0388C-0.0322266 15.7922 0.440186 16.4768 1.15759 16.7097L8.3595 19.116L10.5317 26.4514C10.8292 27.499 11.6753 28.3003 12.7374 28.5403C12.9371 28.5649 13.1392 28.5649 13.339 28.5403C14.0801 28.5376 14.7919 28.2505 15.3274 27.738L17.9843 25.2317L23.1309 29.2922C24.1389 30.0793 25.5078 30.2219 26.6566 29.6597L27.208 29.3757C28.1637 28.8843 28.8368 27.9766 29.0294 26.9194L33.4241 4.19409C33.6335 3.02905 33.2444 1.83643 32.3881 1.01929ZM26.0718 27.2034C26.3337 27.0625 26.5179 26.8105 26.5731 26.5183L30.9009 3.79321C30.9642 3.46167 30.8649 3.11987 30.6335 2.87402C30.4736 2.68896 30.2432 2.57959 29.9985 2.57324C29.8997 2.5498 29.7966 2.5498 29.6978 2.57324L2.51111 14.3704L10.0471 16.9436C10.2744 17.052 10.5385 17.052 10.7656 16.9436L23.3982 8.97314C23.6427 8.86084 23.9324 8.92969 24.1 9.14014C24.2191 9.25195 24.2806 9.41187 24.2671 9.57471C24.2614 9.74048 24.1891 9.89697 24.0667 10.009C22.1617 11.6133 18.9702 14.4204 13.6398 19.4333C13.4695 19.594 13.3728 19.8176 13.3724 20.0518L13.3724 25.9502C13.4568 25.9458 13.5381 25.9167 13.6063 25.8667L17.3159 22.3743C17.6259 22.0996 18.092 22.0996 18.402 22.3743L24.6849 27.3872C24.8203 27.5027 24.9916 27.5676 25.1694 27.571C25.2914 27.5715 25.4116 27.5427 25.5204 27.4875L26.0718 27.2034Z" clip-rule="evenodd" fill-rule="evenodd" fill="#9DE3A0" fill-opacity="1.000000"/>
</svg>
