<svg width="1200" height="1200" viewBox="0 0 1200 1200" fill="none" xmlns="http://www.w3.org/2000/svg">
<g clip-path="url(#clip0_2800_140397)">
<rect width="1200" height="1200" fill="#9886E5"/>
<path fill-rule="evenodd" clip-rule="evenodd" d="M516.641 777.604C466.226 854.856 381.747 952.618 269.335 952.618C216.194 952.618 165.098 930.741 165.098 835.714C165.098 593.704 495.521 219.066 802.1 219.066C976.509 219.066 1046 340.071 1046 477.484C1046 653.865 931.544 855.54 817.77 855.54C781.661 855.54 763.948 835.714 763.948 804.267C763.948 796.063 765.311 787.175 768.036 777.604C729.202 843.918 654.261 905.446 584.089 905.446C532.992 905.446 507.103 873.315 507.103 828.194C507.103 811.787 510.51 794.696 516.641 777.604ZM930.877 472.714C930.877 512.755 907.253 532.776 880.826 532.776C853.998 532.776 830.775 512.755 830.775 472.714C830.775 432.673 853.998 412.653 880.826 412.653C907.253 412.653 930.877 432.673 930.877 472.714ZM780.73 472.714C780.73 512.755 757.105 532.776 730.678 532.776C703.851 532.776 680.627 512.755 680.627 472.714C680.627 432.673 703.851 412.653 730.678 412.653C757.105 412.653 780.73 432.673 780.73 472.714Z" fill="#FFFDF8"/>
</g>
<defs>
<clipPath id="clip0_2800_140397">
<rect width="1200" height="1200" fill="white"/>
</clipPath>
</defs>
</svg>
